<svg width="14" height="14" viewBox="0 0 14 14" fill="none" xmlns="http://www.w3.org/2000/svg">
<path fill-rule="evenodd" clip-rule="evenodd" d="M2 0.75C1.66269 0.75 1.36695 0.879496 1.12322 1.12322C0.879496 1.36695 0.75 1.66269 0.75 2V12C0.75 12.3373 0.879496 12.633 1.12322 12.8768C1.36695 13.1205 1.66269 13.25 2 13.25H12C12.3373 13.25 12.633 13.1205 12.8768 12.8768C13.1205 12.633 13.25 12.3373 13.25 12V2C13.25 1.66269 13.1205 1.36695 12.8768 1.12322C12.633 0.879496 12.3373 0.75 12 0.75H2ZM2.25 11.75V2.25H6.25V11.75H2.25ZM7.75 5.73333V2.25H11.75V5.73333H7.75ZM7.75 11.75V7.23333H11.75V11.75H7.75Z" fill="#667488"/>
</svg>
