<svg width="14" height="17" viewBox="0 0 14 17" fill="none" xmlns="http://www.w3.org/2000/svg">
<path d="M12.8403 3.22664C8.71357 2.80207 7.5248 0.424592 7.47385 0.322697C7.37198 0.118944 7.18517 0 6.96435 0C6.74353 0 6.53979 0.135875 6.45485 0.322697C6.38697 0.424573 5.18128 2.80207 1.05443 3.22664C0.765739 3.26063 0.544922 3.49838 0.544922 3.80401V7.96471C0.544922 12.8557 6.43783 15.9465 6.69257 16.0823C6.77751 16.1163 6.86244 16.1502 6.94726 16.1502C7.03219 16.1502 7.13407 16.1333 7.20195 16.0823C7.45663 15.9464 13.3496 12.8726 13.3496 7.96471L13.3498 3.78703C13.3668 3.49834 13.129 3.2606 12.8403 3.22661L12.8403 3.22664ZM12.212 7.96474C12.212 11.616 8.05129 14.2652 6.94743 14.9106C5.84363 14.2652 1.68287 11.6329 1.68287 7.96474V4.29653C4.6548 3.87197 6.21718 2.47935 6.94743 1.59635C7.67761 2.47947 9.24012 3.87197 12.212 4.29653V7.96474Z" fill="#576579"/>
</svg>
