<svg width="6" height="10" viewBox="0 0 6 10" fill="none" xmlns="http://www.w3.org/2000/svg">
<path d="M0.740234 3.18044C0.740234 4.19944 1.43654 5.04857 2.37061 5.30324V9.39601C2.37061 9.71871 2.6253 9.97339 2.94798 9.97339C3.27067 9.97339 3.52536 9.7187 3.52536 9.39601V8.75065H4.23862C4.56132 8.75065 4.81599 8.49596 4.81599 8.17328C4.81599 7.85059 4.5613 7.5959 4.23862 7.5959H3.52536V5.30321C4.45942 5.04852 5.15573 4.19941 5.15573 3.18041C5.15573 1.95767 4.17075 0.972656 2.94798 0.972656C1.72525 0.989715 0.740234 1.97459 0.740234 3.18041V3.18044ZM4.00086 3.18044C4.00086 3.75781 3.52536 4.23332 2.94798 4.23332C2.37061 4.23332 1.8951 3.75781 1.8951 3.18044C1.8951 2.60306 2.37061 2.12755 2.94798 2.12755C3.52536 2.12755 4.00086 2.60306 4.00086 3.18044Z" fill="#576579"/>
</svg>
